# xmcd
#
# Track frame offsets: 
#        150
#        15037
#        27600
#        53225
#        67125
#        80850
#        96337
#        114775
#        139850
#        158287
#        173162
#        189375
#        207575
#        232487
#        248087
#        273937
#        289550
#        304050
#
# Disc length: 4374 seconds
#
# Revision: 1
# Processed by: cddbd v1.5.2PL0 Copyright (c) Steve Scherf et al.
# Submitted via: ExactAudioCopyFreeDBPlugin 1.0
#
DISCID=fb111412
DTITLE=Lyn Collins - Check Me Out If You Don't Known Me By Now
DYEAR=1973
DGENRE=Rhythm and Blues
TTITLE0=Me and My Baby Got a Good Thing Going
TTITLE1=I'll Never Let You Break My Heart Again
TTITLE2=Take Me Just as I Am
TTITLE3=People Make the World a Better Place
TTITLE4=We Want o Parrty, Parrty, Parrty
TTITLE5=Don't Make Me Over
TTITLE6=Give it Up or Turn it Loose
TTITLE7=You Can't Love Me If You Don't Respect Me
TTITLE8=A Foggy Day
TTITLE9=To Each His Own
TTITLE10=Put It On the Line
TTITLE11=Mr. Big Stuff
TTITLE12=How Long Can I Keep It Up
TTITLE13=Baby Don't Do It
TTITLE14=Backstabbers
TTITLE15=Rock Me Again and Again and Again and Again and Again and Again
TTITLE16=Try a Little Tenderness
TTITLE17=If You Don't Know Me By Know
EXTD=YEAR: 1973 ID3G: 42
EXTT0=
EXTT1=
EXTT2=
EXTT3=
EXTT4=
EXTT5=
EXTT6=
EXTT7=
EXTT8=
EXTT9=
EXTT10=
EXTT11=
EXTT12=
EXTT13=
EXTT14=
EXTT15=
EXTT16=
EXTT17=
PLAYORDER=
